<?xml version="1.0" encoding="UTF-8" standalone="no" ?>
<!DOCTYPE svg PUBLIC "-//W3C//DTD SVG 1.1//EN" "http://www.w3.org/Graphics/SVG/1.1/DTD/svg11.dtd">
<svg xmlns="http://www.w3.org/2000/svg" xmlns:xlink="http://www.w3.org/1999/xlink" version="1.1" width="1080" height="1080" viewBox="0 0 1080 1080" xml:space="preserve">
<desc>Created with Fabric.js 4.2.0</desc>
<defs>
</defs>
<g transform="matrix(1 0 0 1 540 540)" id="c0aa003e-ae82-4691-ac84-6e09c3d77ee8"  >
<rect style="stroke: none; stroke-width: 1; stroke-dasharray: none; stroke-linecap: butt; stroke-dashoffset: 0; stroke-linejoin: miter; stroke-miterlimit: 4; fill: rgb(255,255,255); fill-rule: nonzero; opacity: 1;" vector-effect="non-scaling-stroke"  x="-540" y="-540" rx="0" ry="0" width="1080" height="1080" />
</g>
<g transform="matrix(1 0 0 1 540 540)" id="d7ec7036-0ac1-4e84-a9bf-6239ad9a24e0"  >
</g>
<g transform="matrix(3.42 0 0 3.68 540.32 538.96)"  >
<g style="" vector-effect="non-scaling-stroke"   >
		<g transform="matrix(1.33 0 0 1.33 -41.32 -28.4)"  >
<path style="stroke: none; stroke-width: 1; stroke-dasharray: none; stroke-linecap: butt; stroke-dashoffset: 0; stroke-linejoin: miter; stroke-miterlimit: 4; fill: rgb(167,205,204); fill-rule: nonzero; opacity: 1;" vector-effect="non-scaling-stroke"  transform=" translate(-157.59, -150.34)" d="M 167.902344 133.257812 L 167.902344 194.027344 C 160.644531 194.710938 153.683594 194.300781 147.273438 192.890625 L 147.273438 106.335938 Z M 167.902344 133.257812" stroke-linecap="round" />
</g>
		<g transform="matrix(1.33 0 0 1.33 2.29 -41.93)"  >
<path style="stroke: none; stroke-width: 1; stroke-dasharray: none; stroke-linecap: butt; stroke-dashoffset: 0; stroke-linejoin: miter; stroke-miterlimit: 4; fill: rgb(248,125,9); fill-rule: nonzero; opacity: 1;" vector-effect="non-scaling-stroke"  transform=" translate(-190.3, -140.2)" d="M 201.203125 114.316406 L 201.203125 186.273438 C 199.757812 186.910156 198.292969 187.515625 196.804688 188.097656 C 191.15625 190.28125 185.355469 191.914062 179.394531 193 L 179.394531 87.394531 Z M 201.203125 114.316406" stroke-linecap="round" />
</g>
		<g transform="matrix(1.33 0 0 1.33 45.91 -58.31)"  >
<path style="stroke: none; stroke-width: 1; stroke-dasharray: none; stroke-linecap: butt; stroke-dashoffset: 0; stroke-linejoin: miter; stroke-miterlimit: 4; fill: rgb(167,205,204); fill-rule: nonzero; opacity: 1;" vector-effect="non-scaling-stroke"  transform=" translate(-223.01, -127.91)" d="M 232.894531 96.882812 L 232.894531 170.730469 C 227.125 177.320312 220.535156 182.949219 213.125 187.617188 L 213.125 68.207031 Z M 232.894531 96.882812" stroke-linecap="round" />
</g>
		<g transform="matrix(1.33 0 0 1.33 -6.33 -28.55)"  >
<path style="stroke: none; stroke-width: 1; stroke-dasharray: none; stroke-linecap: butt; stroke-dashoffset: 0; stroke-linejoin: miter; stroke-miterlimit: 4; fill: rgb(0,74,85); fill-rule: nonzero; opacity: 1;" vector-effect="non-scaling-stroke"  transform=" translate(-183.83, -150.23)" d="M 200.765625 186.476562 C 155.671875 201.222656 110.652344 188.097656 98.222656 157.191406 C 98.46875 158.152344 98.746094 159.109375 99.054688 160.058594 C 109.824219 192.96875 156.195312 207.335938 202.621094 192.15625 C 249.050781 176.976562 277.957031 137.984375 267.183594 105.066406 C 266.871094 104.117188 266.527344 103.183594 266.15625 102.261719 C 274.410156 134.546875 245.851562 171.734375 200.765625 186.476562 Z M 200.765625 186.476562" stroke-linecap="round" />
</g>
		<g transform="matrix(1.33 0 0 1.33 -24.72 -41.22)" clip-path="url(#CLIPPATH_3)"  >
<clipPath id="CLIPPATH_3" >
	<path transform="matrix(1 0 0 1 -0.04 0.17) translate(-170, -140.9)" id="id1" d="M 105 65.796875 L 235 65.796875 L 235 216 L 105 216 Z M 105 65.796875" stroke-linecap="round" />
</clipPath>
<path style="stroke: none; stroke-width: 1; stroke-dasharray: none; stroke-linecap: butt; stroke-dashoffset: 0; stroke-linejoin: miter; stroke-miterlimit: 4; fill: rgb(248,125,9); fill-rule: nonzero; opacity: 1;" vector-effect="non-scaling-stroke"  transform=" translate(-170.04, -140.73)" d="M 169.808594 209.480469 C 126.707031 197.445312 101.53125 152.765625 113.570312 109.683594 C 114.792969 105.292969 116.371094 101.035156 118.316406 96.914062 C 120.257812 92.792969 122.53125 88.863281 125.140625 85.125 C 127.75 81.386719 130.652344 77.898438 133.851562 74.652344 C 137.054688 71.40625 140.503906 68.457031 144.203125 65.796875 C 139.917969 68.441406 135.910156 71.460938 132.191406 74.855469 C 128.46875 78.25 125.09375 81.960938 122.066406 85.988281 C 119.039062 90.011719 116.410156 94.285156 114.183594 98.800781 C 111.957031 103.320312 110.171875 108.003906 108.820312 112.859375 C 96.78125 155.9375 121.957031 200.621094 165.058594 212.65625 C 189.753906 219.550781 214.972656 214.230469 234.273438 200.328125 C 231.902344 201.804688 229.457031 203.152344 226.941406 204.371094 C 224.429688 205.589844 221.859375 206.679688 219.230469 207.632812 C 216.605469 208.585938 213.933594 209.402344 211.222656 210.078125 C 208.511719 210.753906 205.773438 211.289062 203.003906 211.683594 C 200.238281 212.074219 197.457031 212.324219 194.664062 212.429688 C 191.871094 212.53125 189.082031 212.492188 186.292969 212.308594 C 183.503906 212.121094 180.734375 211.792969 177.980469 211.320312 C 175.222656 210.847656 172.5 210.234375 169.808594 209.480469 Z M 169.808594 209.480469" stroke-linecap="round" />
</g>
		<g transform="matrix(1.33 0 0 1.33 -139.51 96.04)"  >
<path style="stroke: none; stroke-width: 1; stroke-dasharray: none; stroke-linecap: butt; stroke-dashoffset: 0; stroke-linejoin: miter; stroke-miterlimit: 4; fill: rgb(0,74,85); fill-rule: nonzero; opacity: 1;" vector-effect="non-scaling-stroke"  transform=" translate(-12.88, 12.95)" d="M 21.90625 -21.984375 L 7.765625 -21.984375 L 7.765625 -14.984375 L 20.421875 -14.984375 L 20.421875 -11.0625 L 7.765625 -11.0625 L 7.765625 -3.921875 L 22.34375 -3.921875 L 22.34375 0 L 3.40625 0 L 3.40625 -25.90625 L 21.90625 -25.90625 Z M 21.90625 -21.984375" stroke-linecap="round" />
</g>
		<g transform="matrix(1.33 0 0 1.33 -109.46 96.02)"  >
<path style="stroke: none; stroke-width: 1; stroke-dasharray: none; stroke-linecap: butt; stroke-dashoffset: 0; stroke-linejoin: miter; stroke-miterlimit: 4; fill: rgb(0,74,85); fill-rule: nonzero; opacity: 1;" vector-effect="non-scaling-stroke"  transform=" translate(-11.14, 12.97)" d="M 11.90625 -26.078125 C 15.269531 -26.078125 18.296875 -25.191406 20.984375 -23.421875 L 19.171875 -19.578125 C 16.523438 -21.179688 13.992188 -21.984375 11.578125 -21.984375 C 10.273438 -21.984375 9.242188 -21.75 8.484375 -21.28125 C 7.734375 -20.8125 7.359375 -20.144531 7.359375 -19.28125 C 7.359375 -18.414062 7.703125 -17.679688 8.390625 -17.078125 C 9.085938 -16.472656 9.953125 -16.023438 10.984375 -15.734375 C 12.023438 -15.453125 13.148438 -15.09375 14.359375 -14.65625 C 15.566406 -14.226562 16.6875 -13.773438 17.71875 -13.296875 C 18.757812 -12.816406 19.617188 -12.066406 20.296875 -11.046875 C 20.972656 -10.023438 21.3125 -8.785156 21.3125 -7.328125 C 21.3125 -5.054688 20.40625 -3.242188 18.59375 -1.890625 C 16.78125 -0.535156 14.429688 0.140625 11.546875 0.140625 C 9.566406 0.140625 7.648438 -0.226562 5.796875 -0.96875 C 3.953125 -1.707031 2.34375 -2.703125 0.96875 -3.953125 L 2.84375 -7.734375 C 4.15625 -6.523438 5.59375 -5.59375 7.15625 -4.9375 C 8.726562 -4.28125 10.21875 -3.953125 11.625 -3.953125 C 13.144531 -3.953125 14.332031 -4.226562 15.1875 -4.78125 C 16.039062 -5.34375 16.46875 -6.117188 16.46875 -7.109375 C 16.46875 -7.992188 16.117188 -8.738281 15.421875 -9.34375 C 14.734375 -9.945312 13.867188 -10.390625 12.828125 -10.671875 C 11.796875 -10.953125 10.675781 -11.296875 9.46875 -11.703125 C 8.257812 -12.117188 7.132812 -12.550781 6.09375 -13 C 5.0625 -13.457031 4.203125 -14.191406 3.515625 -15.203125 C 2.828125 -16.210938 2.484375 -17.4375 2.484375 -18.875 C 2.484375 -21.0625 3.34375 -22.804688 5.0625 -24.109375 C 6.789062 -25.421875 9.070312 -26.078125 11.90625 -26.078125 Z M 11.90625 -26.078125" stroke-linecap="round" />
</g>
		<g transform="matrix(1.33 0 0 1.33 -79.35 96.04)"  >
<path style="stroke: none; stroke-width: 1; stroke-dasharray: none; stroke-linecap: butt; stroke-dashoffset: 0; stroke-linejoin: miter; stroke-miterlimit: 4; fill: rgb(0,74,85); fill-rule: nonzero; opacity: 1;" vector-effect="non-scaling-stroke"  transform=" translate(-10.71, 12.95)" d="M 21.09375 -21.984375 L 12.875 -21.984375 L 12.875 0 L 8.515625 0 L 8.515625 -21.984375 L 0.328125 -21.984375 L 0.328125 -25.90625 L 21.09375 -25.90625 Z M 21.09375 -21.984375" stroke-linecap="round" />
</g>
		<g transform="matrix(1.33 0 0 1.33 -46.87 96.04)"  >
<path style="stroke: none; stroke-width: 1; stroke-dasharray: none; stroke-linecap: butt; stroke-dashoffset: 0; stroke-linejoin: miter; stroke-miterlimit: 4; fill: rgb(0,74,85); fill-rule: nonzero; opacity: 1;" vector-effect="non-scaling-stroke"  transform=" translate(-13.65, 12.95)" d="M 20.125 -5.84375 L 7.0625 -5.84375 L 4.59375 0 L 0.03125 0 L 11.46875 -25.90625 L 15.953125 -25.90625 L 27.265625 0 L 22.609375 0 Z M 18.46875 -9.734375 L 13.578125 -21.234375 L 8.6875 -9.734375 Z M 18.46875 -9.734375" stroke-linecap="round" />
</g>
		<g transform="matrix(1.33 0 0 1.33 -14.39 96.04)"  >
<path style="stroke: none; stroke-width: 1; stroke-dasharray: none; stroke-linecap: butt; stroke-dashoffset: 0; stroke-linejoin: miter; stroke-miterlimit: 4; fill: rgb(0,74,85); fill-rule: nonzero; opacity: 1;" vector-effect="non-scaling-stroke"  transform=" translate(-10.71, 12.95)" d="M 21.09375 -21.984375 L 12.875 -21.984375 L 12.875 0 L 8.515625 0 L 8.515625 -21.984375 L 0.328125 -21.984375 L 0.328125 -25.90625 L 21.09375 -25.90625 Z M 21.09375 -21.984375" stroke-linecap="round" />
</g>
		<g transform="matrix(1.33 0 0 1.33 17.06 96.04)"  >
<path style="stroke: none; stroke-width: 1; stroke-dasharray: none; stroke-linecap: butt; stroke-dashoffset: 0; stroke-linejoin: miter; stroke-miterlimit: 4; fill: rgb(0,74,85); fill-rule: nonzero; opacity: 1;" vector-effect="non-scaling-stroke"  transform=" translate(-12.88, 12.95)" d="M 21.90625 -21.984375 L 7.765625 -21.984375 L 7.765625 -14.984375 L 20.421875 -14.984375 L 20.421875 -11.0625 L 7.765625 -11.0625 L 7.765625 -3.921875 L 22.34375 -3.921875 L 22.34375 0 L 3.40625 0 L 3.40625 -25.90625 L 21.90625 -25.90625 Z M 21.90625 -21.984375" stroke-linecap="round" />
</g>
		<g transform="matrix(1.33 0 0 1.33 63.23 96.04)"  >
<path style="stroke: none; stroke-width: 1; stroke-dasharray: none; stroke-linecap: butt; stroke-dashoffset: 0; stroke-linejoin: miter; stroke-miterlimit: 4; fill: rgb(0,74,85); fill-rule: nonzero; opacity: 1;" vector-effect="non-scaling-stroke"  transform=" translate(-13.69, 12.95)" d="M 3.40625 -25.90625 L 13.734375 -25.90625 C 16.984375 -25.90625 19.5 -25.132812 21.28125 -23.59375 C 23.070312 -22.050781 23.96875 -19.875 23.96875 -17.0625 C 23.96875 -14.125 23.070312 -11.847656 21.28125 -10.234375 C 19.5 -8.617188 16.984375 -7.8125 13.734375 -7.8125 L 7.765625 -7.8125 L 7.765625 0 L 3.40625 0 Z M 7.765625 -21.984375 L 7.765625 -11.734375 L 13.546875 -11.734375 C 17.710938 -11.734375 19.796875 -13.472656 19.796875 -16.953125 C 19.796875 -20.304688 17.710938 -21.984375 13.546875 -21.984375 Z M 7.765625 -21.984375" stroke-linecap="round" />
</g>
		<g transform="matrix(1.33 0 0 1.33 96.98 96.04)"  >
<path style="stroke: none; stroke-width: 1; stroke-dasharray: none; stroke-linecap: butt; stroke-dashoffset: 0; stroke-linejoin: miter; stroke-miterlimit: 4; fill: rgb(0,74,85); fill-rule: nonzero; opacity: 1;" vector-effect="non-scaling-stroke"  transform=" translate(-14.1, 12.95)" d="M 19.828125 0 L 15.09375 -7.84375 C 14.84375 -7.820312 14.445312 -7.8125 13.90625 -7.8125 L 7.765625 -7.8125 L 7.765625 0 L 3.40625 0 L 3.40625 -25.90625 L 13.90625 -25.90625 C 17.21875 -25.90625 19.785156 -25.132812 21.609375 -23.59375 C 23.429688 -22.050781 24.34375 -19.875 24.34375 -17.0625 C 24.34375 -14.988281 23.878906 -13.234375 22.953125 -11.796875 C 22.035156 -10.367188 20.710938 -9.320312 18.984375 -8.65625 L 24.796875 0 Z M 7.765625 -11.734375 L 13.90625 -11.734375 C 18.101562 -11.734375 20.203125 -13.472656 20.203125 -16.953125 C 20.203125 -20.304688 18.101562 -21.984375 13.90625 -21.984375 L 7.765625 -21.984375 Z M 7.765625 -11.734375" stroke-linecap="round" />
</g>
		<g transform="matrix(1.33 0 0 1.33 133.83 96.09)"  >
<path style="stroke: none; stroke-width: 1; stroke-dasharray: none; stroke-linecap: butt; stroke-dashoffset: 0; stroke-linejoin: miter; stroke-miterlimit: 4; fill: rgb(0,74,85); fill-rule: nonzero; opacity: 1;" vector-effect="non-scaling-stroke"  transform=" translate(-14.99, 12.91)" d="M 5.21875 -22.25 C 7.851562 -24.757812 11.109375 -26.015625 14.984375 -26.015625 C 18.859375 -26.015625 22.113281 -24.757812 24.75 -22.25 C 27.394531 -19.75 28.71875 -16.648438 28.71875 -12.953125 C 28.71875 -9.253906 27.394531 -6.140625 24.75 -3.609375 C 22.113281 -1.078125 18.859375 0.1875 14.984375 0.1875 C 11.109375 0.1875 7.851562 -1.078125 5.21875 -3.609375 C 2.582031 -6.140625 1.265625 -9.253906 1.265625 -12.953125 C 1.265625 -16.648438 2.582031 -19.75 5.21875 -22.25 Z M 15.015625 -22.09375 C 12.453125 -22.09375 10.257812 -21.207031 8.4375 -19.4375 C 6.613281 -17.675781 5.703125 -15.515625 5.703125 -12.953125 C 5.703125 -10.390625 6.617188 -8.210938 8.453125 -6.421875 C 10.296875 -4.628906 12.484375 -3.734375 15.015625 -3.734375 C 17.554688 -3.734375 19.726562 -4.628906 21.53125 -6.421875 C 23.332031 -8.210938 24.234375 -10.390625 24.234375 -12.953125 C 24.234375 -15.515625 23.332031 -17.675781 21.53125 -19.4375 C 19.726562 -21.207031 17.554688 -22.09375 15.015625 -22.09375 Z M 15.015625 -22.09375" stroke-linecap="round" />
</g>
		<g transform="matrix(1.33 0 0 1.33 -128.78 130.05)"  >
<path style="stroke: none; stroke-width: 1; stroke-dasharray: none; stroke-linecap: butt; stroke-dashoffset: 0; stroke-linejoin: miter; stroke-miterlimit: 4; fill: rgb(0,74,85); fill-rule: nonzero; opacity: 1;" vector-effect="non-scaling-stroke"  transform=" translate(-2.88, 4.4)" d="M 2.101562 -7.621094 C 2.40625 -7.621094 2.527344 -7.851562 2.527344 -8.214844 C 2.527344 -8.554688 2.40625 -8.796875 2.101562 -8.796875 C 1.769531 -8.796875 1.636719 -8.554688 1.636719 -8.214844 C 1.636719 -7.851562 1.769531 -7.621094 2.101562 -7.621094 Z M 3.386719 -7.621094 C 3.695312 -7.621094 3.828125 -7.851562 3.828125 -8.214844 C 3.828125 -8.554688 3.695312 -8.796875 3.386719 -8.796875 C 3.054688 -8.796875 2.9375 -8.554688 2.9375 -8.214844 C 2.9375 -7.851562 3.054688 -7.621094 3.386719 -7.621094 Z M 4.046875 -0.835938 L 4.046875 -6.609375 L 3.210938 -6.609375 L 3.210938 -6.035156 L 2.703125 -6.035156 C 1.242188 -6.035156 0.636719 -5.429688 0.636719 -3.890625 L 0.636719 -2.089844 C 0.636719 -0.691406 1.339844 0 2.703125 0 C 3.089844 0 3.585938 0 3.96875 0 L 5.113281 0 L 5.113281 -0.835938 Z M 2.660156 -0.835938 C 1.878906 -0.835938 1.472656 -1.265625 1.472656 -2.089844 L 1.472656 -3.890625 C 1.472656 -4.835938 1.78125 -5.199219 2.660156 -5.199219 L 3.210938 -5.199219 L 3.210938 -0.835938 Z M 2.660156 -0.835938" stroke-linecap="round" />
</g>
		<g transform="matrix(1.33 0 0 1.33 -123.03 133.57)"  >
<path style="stroke: none; stroke-width: 1; stroke-dasharray: none; stroke-linecap: butt; stroke-dashoffset: 0; stroke-linejoin: miter; stroke-miterlimit: 4; fill: rgb(0,74,85); fill-rule: nonzero; opacity: 1;" vector-effect="non-scaling-stroke"  transform=" translate(-1.19, 1.75)" d="M 2.386719 0 L 2.386719 -6.046875 L 1.550781 -6.046875 L 1.550781 -0.835938 L 0 -0.835938 L 0 0 Z M 0.5625 2.539062 C 0.867188 2.539062 0.988281 2.296875 0.988281 1.957031 C 0.988281 1.59375 0.867188 1.363281 0.5625 1.363281 C 0.230469 1.363281 0.0976562 1.59375 0.0976562 1.957031 C 0.0976562 2.296875 0.230469 2.539062 0.5625 2.539062 Z M 1.847656 2.539062 C 2.15625 2.539062 2.285156 2.296875 2.285156 1.957031 C 2.285156 1.59375 2.15625 1.363281 1.847656 1.363281 C 1.515625 1.363281 1.394531 1.59375 1.394531 1.957031 C 1.394531 2.296875 1.515625 2.539062 1.847656 2.539062 Z M 1.847656 2.539062" stroke-linecap="round" />
</g>
		<g transform="matrix(1.33 0 0 1.33 -117.97 133.49)"  >
<path style="stroke: none; stroke-width: 1; stroke-dasharray: none; stroke-linecap: butt; stroke-dashoffset: 0; stroke-linejoin: miter; stroke-miterlimit: 4; fill: rgb(0,74,85); fill-rule: nonzero; opacity: 1;" vector-effect="non-scaling-stroke"  transform=" translate(-0.86, 1.81)" d="M 0.496094 2.417969 C 1.59375 2.417969 2.078125 1.878906 2.078125 0.527344 L 2.078125 -6.046875 L 1.242188 -6.046875 L 1.242188 0.582031 C 1.242188 1.332031 0.890625 1.59375 0.363281 1.59375 C 0.121094 1.59375 -0.0546875 1.574219 -0.363281 1.527344 L -0.308594 2.320312 C 0.0117188 2.386719 0.273438 2.417969 0.496094 2.417969 Z M 0.496094 2.417969" stroke-linecap="round" />
</g>
		<g transform="matrix(1.33 0 0 1.33 -111.73 129.97)"  >
<path style="stroke: none; stroke-width: 1; stroke-dasharray: none; stroke-linecap: butt; stroke-dashoffset: 0; stroke-linejoin: miter; stroke-miterlimit: 4; fill: rgb(0,74,85); fill-rule: nonzero; opacity: 1;" vector-effect="non-scaling-stroke"  transform=" translate(-1.71, 4.46)" d="M 1.59375 -8.917969 L 0.757812 -8.917969 L 0.757812 0 L 2.660156 0 L 2.660156 -0.835938 L 1.59375 -0.835938 Z M 1.59375 -8.917969" stroke-linecap="round" />
</g>
		<g transform="matrix(1.33 0 0 1.33 -105.79 130.19)"  >
<path style="stroke: none; stroke-width: 1; stroke-dasharray: none; stroke-linecap: butt; stroke-dashoffset: 0; stroke-linejoin: miter; stroke-miterlimit: 4; fill: rgb(0,74,85); fill-rule: nonzero; opacity: 1;" vector-effect="non-scaling-stroke"  transform=" translate(-2.62, 4.29)" d="M 2.078125 -7.410156 C 2.386719 -7.410156 2.507812 -7.640625 2.507812 -8.003906 C 2.507812 -8.34375 2.386719 -8.585938 2.078125 -8.585938 C 1.75 -8.585938 1.617188 -8.34375 1.617188 -8.003906 C 1.617188 -7.640625 1.75 -7.410156 2.078125 -7.410156 Z M 3.363281 -7.410156 C 3.671875 -7.410156 3.804688 -7.640625 3.804688 -8.003906 C 3.804688 -8.34375 3.671875 -8.585938 3.363281 -8.585938 C 3.035156 -8.585938 2.914062 -8.34375 2.914062 -8.003906 C 2.914062 -7.640625 3.035156 -7.410156 3.363281 -7.410156 Z M 4.1875 -6.035156 L 2.835938 -6.035156 C 1.386719 -6.035156 0.769531 -5.429688 0.769531 -3.890625 L 0.769531 -2.089844 C 0.769531 -1.574219 0.867188 -1.15625 1.054688 -0.835938 L 0 -0.835938 L 0 0 L 2.835938 0 C 3.222656 0 3.707031 0 4.101562 0 L 5.246094 0 L 5.246094 -0.835938 L 4.1875 -0.835938 Z M 2.804688 -0.835938 C 2.011719 -0.835938 1.605469 -1.265625 1.605469 -2.089844 L 1.605469 -3.890625 C 1.605469 -4.835938 1.914062 -5.199219 2.804688 -5.199219 L 3.351562 -5.199219 L 3.351562 -0.835938 Z M 2.804688 -0.835938" stroke-linecap="round" />
</g>
		<g transform="matrix(1.33 0 0 1.33 -97.36 131.8)"  >
<path style="stroke: none; stroke-width: 1; stroke-dasharray: none; stroke-linecap: butt; stroke-dashoffset: 0; stroke-linejoin: miter; stroke-miterlimit: 4; fill: rgb(0,74,85); fill-rule: nonzero; opacity: 1;" vector-effect="non-scaling-stroke"  transform=" translate(-2.83, 3.08)" d="M 4.992188 -5.464844 C 4.234375 -5.925781 3.453125 -6.167969 2.714844 -6.167969 C 1.957031 -6.167969 1.164062 -5.925781 0.417969 -5.464844 L 1.574219 -0.835938 L 0 -0.835938 L 0 0 L 5.652344 0 L 5.652344 -0.835938 L 3.828125 -0.835938 Z M 1.375 -4.992188 C 1.878906 -5.222656 2.285156 -5.320312 2.714844 -5.320312 C 3.175781 -5.320312 3.59375 -5.222656 4.058594 -4.980469 L 3.046875 -0.835938 L 2.332031 -0.835938 Z M 1.375 -4.992188" stroke-linecap="round" />
</g>
		<g transform="matrix(1.33 0 0 1.33 -91.3 129.97)"  >
<path style="stroke: none; stroke-width: 1; stroke-dasharray: none; stroke-linecap: butt; stroke-dashoffset: 0; stroke-linejoin: miter; stroke-miterlimit: 4; fill: rgb(0,74,85); fill-rule: nonzero; opacity: 1;" vector-effect="non-scaling-stroke"  transform=" translate(-0.84, 4.46)" d="M 0.835938 -0.835938 L 0 -0.835938 L 0 0 L 1.671875 0 L 1.671875 -8.917969 L 0.835938 -8.917969 Z M 0.835938 -0.835938" stroke-linecap="round" />
</g>
		<g transform="matrix(1.33 0 0 1.33 -86.14 129.97)"  >
<path style="stroke: none; stroke-width: 1; stroke-dasharray: none; stroke-linecap: butt; stroke-dashoffset: 0; stroke-linejoin: miter; stroke-miterlimit: 4; fill: rgb(0,74,85); fill-rule: nonzero; opacity: 1;" vector-effect="non-scaling-stroke"  transform=" translate(-1.18, 4.46)" d="M 1.59375 0 L 1.59375 -8.917969 L 0.757812 -8.917969 L 0.757812 0 Z M 1.59375 0" stroke-linecap="round" />
</g>
		<g transform="matrix(1.33 0 0 1.33 -75.81 130.55)"  >
<path style="stroke: none; stroke-width: 1; stroke-dasharray: none; stroke-linecap: butt; stroke-dashoffset: 0; stroke-linejoin: miter; stroke-miterlimit: 4; fill: rgb(0,74,85); fill-rule: nonzero; opacity: 1;" vector-effect="non-scaling-stroke"  transform=" translate(-2.7, 4.02)" d="M 2.089844 -6.871094 C 2.398438 -6.871094 2.519531 -7.101562 2.519531 -7.464844 C 2.519531 -7.804688 2.398438 -8.046875 2.089844 -8.046875 C 1.757812 -8.046875 1.628906 -7.804688 1.628906 -7.464844 C 1.628906 -7.101562 1.757812 -6.871094 2.089844 -6.871094 Z M 3.375 -6.871094 C 3.683594 -6.871094 3.816406 -7.101562 3.816406 -7.464844 C 3.816406 -7.804688 3.683594 -8.046875 3.375 -8.046875 C 3.046875 -8.046875 2.925781 -7.804688 2.925781 -7.464844 C 2.925781 -7.101562 3.046875 -6.871094 3.375 -6.871094 Z M 4.78125 0 L 4.78125 -6.046875 L 3.945312 -6.046875 L 3.945312 -0.835938 L 2.484375 -0.835938 C 1.804688 -0.835938 1.460938 -1.175781 1.460938 -1.835938 L 1.460938 -5.046875 L 0.625 -5.046875 L 0.625 -1.683594 C 0.625 -0.605469 1.21875 0 2.308594 0 Z M 4.78125 0" stroke-linecap="round" />
</g>
		<g transform="matrix(1.33 0 0 1.33 -68.41 129.97)"  >
<path style="stroke: none; stroke-width: 1; stroke-dasharray: none; stroke-linecap: butt; stroke-dashoffset: 0; stroke-linejoin: miter; stroke-miterlimit: 4; fill: rgb(0,74,85); fill-rule: nonzero; opacity: 1;" vector-effect="non-scaling-stroke"  transform=" translate(-1.71, 4.46)" d="M 1.59375 -8.917969 L 0.757812 -8.917969 L 0.757812 0 L 2.660156 0 L 2.660156 -0.835938 L 1.59375 -0.835938 Z M 1.59375 -8.917969" stroke-linecap="round" />
</g>
		<g transform="matrix(1.33 0 0 1.33 -63.37 129.97)"  >
<path style="stroke: none; stroke-width: 1; stroke-dasharray: none; stroke-linecap: butt; stroke-dashoffset: 0; stroke-linejoin: miter; stroke-miterlimit: 4; fill: rgb(0,74,85); fill-rule: nonzero; opacity: 1;" vector-effect="non-scaling-stroke"  transform=" translate(-1.95, 4.46)" d="M 3.902344 0 L 3.902344 -3.726562 C 3.902344 -4.835938 3.289062 -5.410156 2.121094 -5.410156 L 1.332031 -5.410156 L 3.210938 -8.917969 L 2.199219 -8.917969 L 0.394531 -5.410156 C 0.417969 -5.058594 0.550781 -4.773438 0.691406 -4.574219 L 2.054688 -4.574219 C 2.671875 -4.574219 3.066406 -4.265625 3.066406 -3.539062 L 3.066406 -0.835938 L 0 -0.835938 L 0 0 Z M 3.902344 0" stroke-linecap="round" />
</g>
		<g transform="matrix(1.33 0 0 1.33 -56.66 133.49)"  >
<path style="stroke: none; stroke-width: 1; stroke-dasharray: none; stroke-linecap: butt; stroke-dashoffset: 0; stroke-linejoin: miter; stroke-miterlimit: 4; fill: rgb(0,74,85); fill-rule: nonzero; opacity: 1;" vector-effect="non-scaling-stroke"  transform=" translate(-1.39, 1.81)" d="M 2.078125 -0.835938 L 2.078125 -6.046875 L 1.242188 -6.046875 L 1.242188 0.582031 C 1.242188 1.332031 0.890625 1.59375 0.363281 1.59375 C 0.121094 1.59375 -0.0546875 1.574219 -0.363281 1.527344 L -0.308594 2.320312 C 0.0117188 2.386719 0.273438 2.417969 0.496094 2.417969 C 1.59375 2.417969 2.078125 1.878906 2.078125 0.527344 L 2.078125 0 L 3.144531 0 L 3.144531 -0.835938 Z M 2.078125 -0.835938" stroke-linecap="round" />
</g>
		<g transform="matrix(1.33 0 0 1.33 -47.88 129.96)"  >
<path style="stroke: none; stroke-width: 1; stroke-dasharray: none; stroke-linecap: butt; stroke-dashoffset: 0; stroke-linejoin: miter; stroke-miterlimit: 4; fill: rgb(0,74,85); fill-rule: nonzero; opacity: 1;" vector-effect="non-scaling-stroke"  transform=" translate(-3.95, 4.46)" d="M 3.835938 -7.960938 C 4.113281 -7.960938 4.242188 -8.179688 4.242188 -8.5 C 4.242188 -8.816406 4.113281 -9.039062 3.835938 -9.039062 C 3.550781 -9.039062 3.410156 -8.816406 3.410156 -8.5 C 3.410156 -8.179688 3.550781 -7.960938 3.835938 -7.960938 Z M 3.199219 -6.476562 C 3.507812 -6.476562 3.628906 -6.71875 3.628906 -7.070312 C 3.628906 -7.421875 3.507812 -7.652344 3.199219 -7.652344 C 2.871094 -7.652344 2.738281 -7.421875 2.738281 -7.070312 C 2.738281 -6.71875 2.871094 -6.476562 3.199219 -6.476562 Z M 4.035156 -7.070312 C 4.035156 -6.71875 4.179688 -6.476562 4.484375 -6.476562 C 4.804688 -6.476562 4.925781 -6.71875 4.925781 -7.070312 C 4.925781 -7.421875 4.804688 -7.652344 4.484375 -7.652344 C 4.167969 -7.652344 4.035156 -7.421875 4.035156 -7.070312 Z M 7.71875 -0.835938 C 7.035156 -0.835938 6.816406 -1.394531 6.816406 -2.78125 L 6.816406 -6.046875 L 5.980469 -6.046875 L 5.980469 -1.859375 C 5.980469 -1.078125 5.707031 -0.738281 5.167969 -0.738281 C 4.683594 -0.738281 4.242188 -1.042969 4.242188 -1.988281 L 4.242188 -5.300781 L 3.410156 -5.300781 L 3.410156 -2.023438 C 3.410156 -1.21875 3.101562 -0.835938 2.242188 -0.835938 L 1.8125 -0.835938 L 1.8125 -5.300781 L 0.980469 -5.300781 L 0.980469 -0.835938 L 0 -0.835938 L 0 0 L 2.242188 0 C 3.199219 0 3.648438 -0.40625 3.78125 -1.035156 C 3.9375 -0.308594 4.585938 0.109375 5.289062 0.109375 C 6.003906 0.109375 6.496094 -0.21875 6.707031 -0.890625 C 6.894531 -0.308594 7.222656 0 7.730469 0 L 7.894531 0 L 7.894531 -0.835938 Z M 7.71875 -0.835938" stroke-linecap="round" />
</g>
		<g transform="matrix(1.33 0 0 1.33 -40.26 129.97)"  >
<path style="stroke: none; stroke-width: 1; stroke-dasharray: none; stroke-linecap: butt; stroke-dashoffset: 0; stroke-linejoin: miter; stroke-miterlimit: 4; fill: rgb(0,74,85); fill-rule: nonzero; opacity: 1;" vector-effect="non-scaling-stroke"  transform=" translate(-0.84, 4.46)" d="M 0.835938 -0.835938 L 0 -0.835938 L 0 0 L 1.671875 0 L 1.671875 -8.917969 L 0.835938 -8.917969 Z M 0.835938 -0.835938" stroke-linecap="round" />
</g>
		<g transform="matrix(1.33 0 0 1.33 -35.1 129.97)"  >
<path style="stroke: none; stroke-width: 1; stroke-dasharray: none; stroke-linecap: butt; stroke-dashoffset: 0; stroke-linejoin: miter; stroke-miterlimit: 4; fill: rgb(0,74,85); fill-rule: nonzero; opacity: 1;" vector-effect="non-scaling-stroke"  transform=" translate(-1.18, 4.46)" d="M 1.59375 0 L 1.59375 -8.917969 L 0.757812 -8.917969 L 0.757812 0 Z M 1.59375 0" stroke-linecap="round" />
</g>
		<g transform="matrix(1.33 0 0 1.33 -25.25 131.51)"  >
<path style="stroke: none; stroke-width: 1; stroke-dasharray: none; stroke-linecap: butt; stroke-dashoffset: 0; stroke-linejoin: miter; stroke-miterlimit: 4; fill: rgb(0,74,85); fill-rule: nonzero; opacity: 1;" vector-effect="non-scaling-stroke"  transform=" translate(-2.34, 3.3)" d="M 3.210938 -6.035156 L 2.703125 -6.035156 C 1.242188 -6.035156 0.636719 -5.429688 0.636719 -3.890625 L 0.636719 -2.089844 C 0.636719 -0.691406 1.339844 0 2.703125 0 L 4.011719 0 L 4.011719 -0.03125 L 4.046875 0 L 4.046875 -6.609375 L 3.210938 -6.609375 Z M 2.660156 -0.835938 C 1.878906 -0.835938 1.472656 -1.265625 1.472656 -2.089844 L 1.472656 -3.890625 C 1.472656 -4.835938 1.78125 -5.199219 2.660156 -5.199219 L 3.210938 -5.199219 L 3.210938 -0.835938 Z M 2.660156 -0.835938" stroke-linecap="round" />
</g>
		<g transform="matrix(1.33 0 0 1.33 -19.08 129.05)"  >
<path style="stroke: none; stroke-width: 1; stroke-dasharray: none; stroke-linecap: butt; stroke-dashoffset: 0; stroke-linejoin: miter; stroke-miterlimit: 4; fill: rgb(0,74,85); fill-rule: nonzero; opacity: 1;" vector-effect="non-scaling-stroke"  transform=" translate(-1.18, 5.15)" d="M 1.933594 -8.464844 L 1.933594 -9.070312 L 1.035156 -9.070312 L 1.035156 -9.347656 C 1.035156 -9.578125 1.132812 -9.6875 1.351562 -9.6875 L 1.691406 -9.6875 L 1.691406 -10.292969 L 1.460938 -10.292969 C 0.78125 -10.292969 0.417969 -9.941406 0.417969 -9.347656 L 0.417969 -8.464844 Z M 1.582031 0 L 1.582031 -7.609375 L 0.746094 -7.609375 L 0.746094 0 Z M 1.582031 0" stroke-linecap="round" />
</g>
		<g transform="matrix(1.33 0 0 1.33 -14.9 133.49)"  >
<path style="stroke: none; stroke-width: 1; stroke-dasharray: none; stroke-linecap: butt; stroke-dashoffset: 0; stroke-linejoin: miter; stroke-miterlimit: 4; fill: rgb(0,74,85); fill-rule: nonzero; opacity: 1;" vector-effect="non-scaling-stroke"  transform=" translate(-0.86, 1.81)" d="M 0.496094 2.417969 C 1.59375 2.417969 2.078125 1.878906 2.078125 0.527344 L 2.078125 -6.046875 L 1.242188 -6.046875 L 1.242188 0.582031 C 1.242188 1.332031 0.890625 1.59375 0.363281 1.59375 C 0.121094 1.59375 -0.0546875 1.574219 -0.363281 1.527344 L -0.308594 2.320312 C 0.0117188 2.386719 0.273438 2.417969 0.496094 2.417969 Z M 0.496094 2.417969" stroke-linecap="round" />
</g>
		<g transform="matrix(1.33 0 0 1.33 -8.5 131.88)"  >
<path style="stroke: none; stroke-width: 1; stroke-dasharray: none; stroke-linecap: butt; stroke-dashoffset: 0; stroke-linejoin: miter; stroke-miterlimit: 4; fill: rgb(0,74,85); fill-rule: nonzero; opacity: 1;" vector-effect="non-scaling-stroke"  transform=" translate(-1.83, 3.02)" d="M 3.351562 0 L 3.351562 -4.363281 C 3.351562 -5.464844 2.75 -6.046875 1.582031 -6.046875 L 1.210938 -6.046875 L 1.210938 -5.210938 L 1.515625 -5.210938 C 2.132812 -5.210938 2.519531 -4.902344 2.519531 -4.179688 L 2.519531 -0.835938 L 0.308594 -0.835938 L 0.308594 0 Z M 3.351562 0" stroke-linecap="round" />
</g>
		<g transform="matrix(1.33 0 0 1.33 -2.65 129.97)"  >
<path style="stroke: none; stroke-width: 1; stroke-dasharray: none; stroke-linecap: butt; stroke-dashoffset: 0; stroke-linejoin: miter; stroke-miterlimit: 4; fill: rgb(0,74,85); fill-rule: nonzero; opacity: 1;" vector-effect="non-scaling-stroke"  transform=" translate(-1.18, 4.46)" d="M 1.59375 0 L 1.59375 -8.917969 L 0.757812 -8.917969 L 0.757812 0 Z M 1.59375 0" stroke-linecap="round" />
</g>
		<g transform="matrix(1.33 0 0 1.33 10.08 134.49)"  >
<path style="stroke: none; stroke-width: 1; stroke-dasharray: none; stroke-linecap: butt; stroke-dashoffset: 0; stroke-linejoin: miter; stroke-miterlimit: 4; fill: rgb(0,74,85); fill-rule: nonzero; opacity: 1;" vector-effect="non-scaling-stroke"  transform=" translate(-4.5, 1.07)" d="M 7.289062 -6.046875 L 5.804688 -6.046875 C 4.496094 -6.046875 3.871094 -5.398438 3.871094 -4.066406 L 3.871094 0.539062 L 2.496094 0.539062 C 1.8125 0.539062 1.472656 0.199219 1.472656 -0.460938 L 1.472656 -4.046875 L 0.636719 -4.046875 L 0.636719 -0.308594 C 0.636719 0.78125 1.230469 1.375 2.320312 1.375 L 4.707031 1.375 L 4.707031 -3.914062 C 4.707031 -4.78125 5.078125 -5.210938 5.859375 -5.210938 L 6.453125 -5.210938 L 6.453125 0 L 8.355469 0 L 8.355469 -0.835938 L 7.289062 -0.835938 Z M 2.417969 2.738281 C 2.089844 2.738281 1.957031 2.96875 1.957031 3.332031 C 1.957031 3.671875 2.089844 3.914062 2.417969 3.914062 C 2.726562 3.914062 2.847656 3.671875 2.847656 3.332031 C 2.847656 2.96875 2.726562 2.738281 2.417969 2.738281 Z M 3.707031 2.738281 C 3.375 2.738281 3.253906 2.96875 3.253906 3.332031 C 3.253906 3.671875 3.375 3.914062 3.707031 3.914062 C 4.011719 3.914062 4.144531 3.671875 4.144531 3.332031 C 4.144531 2.96875 4.011719 2.738281 3.707031 2.738281 Z M 3.707031 2.738281" stroke-linecap="round" />
</g>
		<g transform="matrix(1.33 0 0 1.33 19.19 130.13)"  >
<path style="stroke: none; stroke-width: 1; stroke-dasharray: none; stroke-linecap: butt; stroke-dashoffset: 0; stroke-linejoin: miter; stroke-miterlimit: 4; fill: rgb(0,74,85); fill-rule: nonzero; opacity: 1;" vector-effect="non-scaling-stroke"  transform=" translate(-2.09, 4.34)" d="M 2.714844 -7.488281 C 3.023438 -7.488281 3.15625 -7.730469 3.15625 -8.082031 C 3.15625 -8.445312 3.023438 -8.675781 2.714844 -8.675781 C 2.386719 -8.675781 2.253906 -8.445312 2.253906 -8.082031 C 2.253906 -7.730469 2.386719 -7.488281 2.714844 -7.488281 Z M 2.835938 -6.035156 C 1.386719 -6.035156 0.769531 -5.429688 0.769531 -3.890625 L 0.769531 -2.089844 C 0.769531 -1.574219 0.867188 -1.15625 1.054688 -0.835938 L 0 -0.835938 L 0 0 L 4.1875 0 L 4.1875 -6.035156 Z M 2.804688 -0.835938 C 2.011719 -0.835938 1.605469 -1.265625 1.605469 -2.089844 L 1.605469 -3.890625 C 1.605469 -4.835938 1.914062 -5.199219 2.804688 -5.199219 L 3.351562 -5.199219 L 3.351562 -0.835938 Z M 2.804688 -0.835938" stroke-linecap="round" />
</g>
		<g transform="matrix(1.33 0 0 1.33 31.87 130.88)"  >
<path style="stroke: none; stroke-width: 1; stroke-dasharray: none; stroke-linecap: butt; stroke-dashoffset: 0; stroke-linejoin: miter; stroke-miterlimit: 4; fill: rgb(0,74,85); fill-rule: nonzero; opacity: 1;" vector-effect="non-scaling-stroke"  transform=" translate(-2.91, 3.77)" d="M 4.113281 -0.835938 L 4.113281 -8.917969 L 3.277344 -8.917969 L 3.277344 0.539062 L 2.628906 0.539062 C 1.847656 0.539062 1.472656 0.121094 1.472656 -0.746094 L 1.472656 -5.300781 L 0.636719 -5.300781 L 0.636719 -0.59375 C 0.636719 0.738281 1.265625 1.375 2.5625 1.375 L 4.113281 1.375 L 4.113281 0 L 5.179688 0 L 5.179688 -0.835938 Z M 4.113281 -0.835938" stroke-linecap="round" />
</g>
		<g transform="matrix(1.33 0 0 1.33 39.03 132.66)"  >
<path style="stroke: none; stroke-width: 1; stroke-dasharray: none; stroke-linecap: butt; stroke-dashoffset: 0; stroke-linejoin: miter; stroke-miterlimit: 4; fill: rgb(0,74,85); fill-rule: nonzero; opacity: 1;" vector-effect="non-scaling-stroke"  transform=" translate(-2.23, 2.44)" d="M 2.75 -6.046875 C 1.574219 -6.046875 1.023438 -5.300781 1.023438 -3.707031 L 1.023438 -1.144531 C 1.023438 -1.035156 1.023438 -0.933594 1.035156 -0.835938 L 0 -0.835938 L 0 0 L 1.15625 0 C 1.386719 0.800781 1.902344 1.164062 2.75 1.164062 L 2.757812 1.164062 C 3.914062 1.164062 4.453125 0.441406 4.453125 -1.144531 L 4.453125 -3.707031 C 4.453125 -5.300781 3.914062 -6.046875 2.757812 -6.046875 Z M 3.617188 -1.078125 C 3.617188 -0.0976562 3.351562 0.328125 2.757812 0.328125 L 2.75 0.328125 C 2.132812 0.328125 1.859375 -0.0976562 1.859375 -1.078125 L 1.859375 -3.804688 C 1.859375 -4.792969 2.132812 -5.210938 2.738281 -5.210938 L 2.75 -5.210938 C 3.34375 -5.210938 3.617188 -4.792969 3.617188 -3.804688 Z M 3.617188 -1.078125" stroke-linecap="round" />
</g>
		<g transform="matrix(1.33 0 0 1.33 46.51 129.97)"  >
<path style="stroke: none; stroke-width: 1; stroke-dasharray: none; stroke-linecap: butt; stroke-dashoffset: 0; stroke-linejoin: miter; stroke-miterlimit: 4; fill: rgb(0,74,85); fill-rule: nonzero; opacity: 1;" vector-effect="non-scaling-stroke"  transform=" translate(-1.71, 4.46)" d="M 1.59375 -8.917969 L 0.757812 -8.917969 L 0.757812 0 L 2.660156 0 L 2.660156 -0.835938 L 1.59375 -0.835938 Z M 1.59375 -8.917969" stroke-linecap="round" />
</g>
		<g transform="matrix(1.33 0 0 1.33 52.26 129.97)"  >
<path style="stroke: none; stroke-width: 1; stroke-dasharray: none; stroke-linecap: butt; stroke-dashoffset: 0; stroke-linejoin: miter; stroke-miterlimit: 4; fill: rgb(0,74,85); fill-rule: nonzero; opacity: 1;" vector-effect="non-scaling-stroke"  transform=" translate(-2.48, 4.46)" d="M 3.902344 -3.726562 C 3.902344 -4.835938 3.289062 -5.410156 2.121094 -5.410156 L 1.332031 -5.410156 L 3.210938 -8.917969 L 2.199219 -8.917969 L 0.394531 -5.410156 C 0.417969 -5.058594 0.550781 -4.773438 0.691406 -4.574219 L 2.054688 -4.574219 C 2.671875 -4.574219 3.066406 -4.265625 3.066406 -3.539062 L 3.066406 -0.835938 L 0 -0.835938 L 0 0 L 4.96875 0 L 4.96875 -0.835938 L 3.902344 -0.835938 Z M 3.902344 -3.726562" stroke-linecap="round" />
</g>
		<g transform="matrix(1.33 0 0 1.33 59.15 130.19)"  >
<path style="stroke: none; stroke-width: 1; stroke-dasharray: none; stroke-linecap: butt; stroke-dashoffset: 0; stroke-linejoin: miter; stroke-miterlimit: 4; fill: rgb(0,74,85); fill-rule: nonzero; opacity: 1;" vector-effect="non-scaling-stroke"  transform=" translate(-1.8, 4.29)" d="M 1.054688 -7.410156 C 1.363281 -7.410156 1.484375 -7.640625 1.484375 -8.003906 C 1.484375 -8.34375 1.363281 -8.585938 1.054688 -8.585938 C 0.726562 -8.585938 0.59375 -8.34375 0.59375 -8.003906 C 0.59375 -7.640625 0.726562 -7.410156 1.054688 -7.410156 Z M 2.34375 -7.410156 C 2.648438 -7.410156 2.78125 -7.640625 2.78125 -8.003906 C 2.78125 -8.34375 2.648438 -8.585938 2.34375 -8.585938 C 2.011719 -8.585938 1.890625 -8.34375 1.890625 -8.003906 C 1.890625 -7.640625 2.011719 -7.410156 2.34375 -7.410156 Z M 3.605469 0 L 3.605469 -0.835938 L 2.101562 -0.835938 L 2.101562 -6.046875 L 1.265625 -6.046875 L 1.265625 -0.835938 L -0.0117188 -0.835938 L -0.0117188 0 Z M 3.605469 0" stroke-linecap="round" />
</g>
		<g transform="matrix(1.33 0 0 1.33 66.54 132.66)"  >
<path style="stroke: none; stroke-width: 1; stroke-dasharray: none; stroke-linecap: butt; stroke-dashoffset: 0; stroke-linejoin: miter; stroke-miterlimit: 4; fill: rgb(0,74,85); fill-rule: nonzero; opacity: 1;" vector-effect="non-scaling-stroke"  transform=" translate(-2.85, 2.44)" d="M 4.441406 -0.835938 C 4.453125 -0.933594 4.453125 -1.035156 4.453125 -1.144531 L 4.453125 -3.707031 C 4.453125 -5.300781 3.914062 -6.046875 2.757812 -6.046875 L 2.75 -6.046875 C 1.574219 -6.046875 1.023438 -5.300781 1.023438 -3.707031 L 1.023438 -1.144531 C 1.023438 -1.035156 1.023438 -0.933594 1.035156 -0.835938 L 0 -0.835938 L 0 0 L 1.15625 0 C 1.386719 0.800781 1.902344 1.164062 2.75 1.164062 L 2.757812 1.164062 C 3.585938 1.164062 4.101562 0.792969 4.320312 0 L 5.695312 0 L 5.695312 -0.835938 Z M 3.617188 -1.078125 C 3.617188 -0.0976562 3.351562 0.328125 2.757812 0.328125 L 2.75 0.328125 C 2.132812 0.328125 1.859375 -0.0976562 1.859375 -1.078125 L 1.859375 -3.804688 C 1.859375 -4.792969 2.132812 -5.210938 2.738281 -5.210938 L 2.75 -5.210938 C 3.34375 -5.210938 3.617188 -4.792969 3.617188 -3.804688 Z M 3.617188 -1.078125" stroke-linecap="round" />
</g>
		<g transform="matrix(1.33 0 0 1.33 72.62 129.97)"  >
<path style="stroke: none; stroke-width: 1; stroke-dasharray: none; stroke-linecap: butt; stroke-dashoffset: 0; stroke-linejoin: miter; stroke-miterlimit: 4; fill: rgb(0,74,85); fill-rule: nonzero; opacity: 1;" vector-effect="non-scaling-stroke"  transform=" translate(-0.84, 4.46)" d="M 0.835938 -0.835938 L 0 -0.835938 L 0 0 L 1.671875 0 L 1.671875 -8.917969 L 0.835938 -8.917969 Z M 0.835938 -0.835938" stroke-linecap="round" />
</g>
		<g transform="matrix(1.33 0 0 1.33 77.78 129.97)"  >
<path style="stroke: none; stroke-width: 1; stroke-dasharray: none; stroke-linecap: butt; stroke-dashoffset: 0; stroke-linejoin: miter; stroke-miterlimit: 4; fill: rgb(0,74,85); fill-rule: nonzero; opacity: 1;" vector-effect="non-scaling-stroke"  transform=" translate(-1.18, 4.46)" d="M 1.59375 0 L 1.59375 -8.917969 L 0.757812 -8.917969 L 0.757812 0 Z M 1.59375 0" stroke-linecap="round" />
</g>
		<g transform="matrix(1.33 0 0 1.33 87.53 133.5)"  >
<path style="stroke: none; stroke-width: 1; stroke-dasharray: none; stroke-linecap: butt; stroke-dashoffset: 0; stroke-linejoin: miter; stroke-miterlimit: 4; fill: rgb(0,74,85); fill-rule: nonzero; opacity: 1;" vector-effect="non-scaling-stroke"  transform=" translate(-2.27, 1.81)" d="M 3.96875 -6.035156 C 3.957031 -6.035156 3.9375 -6.035156 3.925781 -6.035156 L 2.617188 -6.035156 C 1.164062 -6.035156 0.550781 -5.429688 0.550781 -3.890625 L 0.550781 -2.089844 C 0.550781 -0.691406 1.265625 0 2.617188 0 L 3.144531 0 L 3.144531 0.472656 C 3.144531 1.351562 2.925781 1.683594 2.066406 1.683594 C 1.75 1.683594 1.351562 1.648438 0.902344 1.574219 L 0.945312 2.265625 C 1.363281 2.363281 1.75 2.417969 2.078125 2.417969 C 3.429688 2.417969 3.980469 1.8125 3.980469 0.417969 L 3.980469 -6.035156 Z M 3.132812 -0.835938 L 2.582031 -0.835938 C 1.804688 -0.835938 1.386719 -1.265625 1.386719 -2.089844 L 1.386719 -3.890625 C 1.386719 -4.835938 1.691406 -5.199219 2.582031 -5.199219 L 3.132812 -5.199219 Z M 3.132812 -0.835938" stroke-linecap="round" />
</g>
		<g transform="matrix(1.33 0 0 1.33 94 133.49)"  >
<path style="stroke: none; stroke-width: 1; stroke-dasharray: none; stroke-linecap: butt; stroke-dashoffset: 0; stroke-linejoin: miter; stroke-miterlimit: 4; fill: rgb(0,74,85); fill-rule: nonzero; opacity: 1;" vector-effect="non-scaling-stroke"  transform=" translate(-1.39, 1.81)" d="M 2.078125 -0.835938 L 2.078125 -6.046875 L 1.242188 -6.046875 L 1.242188 0.582031 C 1.242188 1.332031 0.890625 1.59375 0.363281 1.59375 C 0.121094 1.59375 -0.0546875 1.574219 -0.363281 1.527344 L -0.308594 2.320312 C 0.0117188 2.386719 0.273438 2.417969 0.496094 2.417969 C 1.59375 2.417969 2.078125 1.878906 2.078125 0.527344 L 2.078125 0 L 3.144531 0 L 3.144531 -0.835938 Z M 2.078125 -0.835938" stroke-linecap="round" />
</g>
		<g transform="matrix(1.33 0 0 1.33 98.63 133.58)"  >
<path style="stroke: none; stroke-width: 1; stroke-dasharray: none; stroke-linecap: butt; stroke-dashoffset: 0; stroke-linejoin: miter; stroke-miterlimit: 4; fill: rgb(0,74,85); fill-rule: nonzero; opacity: 1;" vector-effect="non-scaling-stroke"  transform=" translate(-0.84, 1.75)" d="M 1.671875 0 L 1.671875 -6.046875 L 0.835938 -6.046875 L 0.835938 -0.835938 L 0 -0.835938 L 0 0 Z M 0.847656 2.550781 C 1.15625 2.550781 1.285156 2.308594 1.285156 1.957031 C 1.285156 1.605469 1.15625 1.363281 0.847656 1.363281 C 0.515625 1.363281 0.386719 1.605469 0.386719 1.957031 C 0.386719 2.308594 0.515625 2.550781 0.847656 2.550781 Z M 0.847656 2.550781" stroke-linecap="round" />
</g>
		<g transform="matrix(1.33 0 0 1.33 106.91 133.49)"  >
<path style="stroke: none; stroke-width: 1; stroke-dasharray: none; stroke-linecap: butt; stroke-dashoffset: 0; stroke-linejoin: miter; stroke-miterlimit: 4; fill: rgb(0,74,85); fill-rule: nonzero; opacity: 1;" vector-effect="non-scaling-stroke"  transform=" translate(-0.86, 1.81)" d="M 0.496094 2.417969 C 1.59375 2.417969 2.078125 1.878906 2.078125 0.527344 L 2.078125 -6.046875 L 1.242188 -6.046875 L 1.242188 0.582031 C 1.242188 1.332031 0.890625 1.59375 0.363281 1.59375 C 0.121094 1.59375 -0.0546875 1.574219 -0.363281 1.527344 L -0.308594 2.320312 C 0.0117188 2.386719 0.273438 2.417969 0.496094 2.417969 Z M 0.496094 2.417969" stroke-linecap="round" />
</g>
		<g transform="matrix(1.33 0 0 1.33 113.15 129.97)"  >
<path style="stroke: none; stroke-width: 1; stroke-dasharray: none; stroke-linecap: butt; stroke-dashoffset: 0; stroke-linejoin: miter; stroke-miterlimit: 4; fill: rgb(0,74,85); fill-rule: nonzero; opacity: 1;" vector-effect="non-scaling-stroke"  transform=" translate(-1.71, 4.46)" d="M 1.59375 -8.917969 L 0.757812 -8.917969 L 0.757812 0 L 2.660156 0 L 2.660156 -0.835938 L 1.59375 -0.835938 Z M 1.59375 -8.917969" stroke-linecap="round" />
</g>
		<g transform="matrix(1.33 0 0 1.33 119.09 130.19)"  >
<path style="stroke: none; stroke-width: 1; stroke-dasharray: none; stroke-linecap: butt; stroke-dashoffset: 0; stroke-linejoin: miter; stroke-miterlimit: 4; fill: rgb(0,74,85); fill-rule: nonzero; opacity: 1;" vector-effect="non-scaling-stroke"  transform=" translate(-2.62, 4.29)" d="M 2.078125 -7.410156 C 2.386719 -7.410156 2.507812 -7.640625 2.507812 -8.003906 C 2.507812 -8.34375 2.386719 -8.585938 2.078125 -8.585938 C 1.75 -8.585938 1.617188 -8.34375 1.617188 -8.003906 C 1.617188 -7.640625 1.75 -7.410156 2.078125 -7.410156 Z M 3.363281 -7.410156 C 3.671875 -7.410156 3.804688 -7.640625 3.804688 -8.003906 C 3.804688 -8.34375 3.671875 -8.585938 3.363281 -8.585938 C 3.035156 -8.585938 2.914062 -8.34375 2.914062 -8.003906 C 2.914062 -7.640625 3.035156 -7.410156 3.363281 -7.410156 Z M 4.1875 -6.035156 L 2.835938 -6.035156 C 1.386719 -6.035156 0.769531 -5.429688 0.769531 -3.890625 L 0.769531 -2.089844 C 0.769531 -1.574219 0.867188 -1.15625 1.054688 -0.835938 L 0 -0.835938 L 0 0 L 2.835938 0 C 3.222656 0 3.707031 0 4.101562 0 L 5.246094 0 L 5.246094 -0.835938 L 4.1875 -0.835938 Z M 2.804688 -0.835938 C 2.011719 -0.835938 1.605469 -1.265625 1.605469 -2.089844 L 1.605469 -3.890625 C 1.605469 -4.835938 1.914062 -5.199219 2.804688 -5.199219 L 3.351562 -5.199219 L 3.351562 -0.835938 Z M 2.804688 -0.835938" stroke-linecap="round" />
</g>
		<g transform="matrix(1.33 0 0 1.33 126.46 131.8)"  >
<path style="stroke: none; stroke-width: 1; stroke-dasharray: none; stroke-linecap: butt; stroke-dashoffset: 0; stroke-linejoin: miter; stroke-miterlimit: 4; fill: rgb(0,74,85); fill-rule: nonzero; opacity: 1;" vector-effect="non-scaling-stroke"  transform=" translate(-2.03, 3.08)" d="M 4.058594 0 L 4.058594 -0.835938 L 1.691406 -0.835938 L 1.691406 -4.320312 C 1.691406 -4.949219 2.011719 -5.320312 2.550781 -5.320312 C 2.878906 -5.320312 3.222656 -5.234375 3.59375 -5.078125 L 3.902344 -5.804688 C 3.363281 -6.035156 2.902344 -6.167969 2.460938 -6.167969 C 1.472656 -6.167969 0.859375 -5.519531 0.859375 -4.476562 L 0.859375 -0.835938 L 0 -0.835938 L 0 0 Z M 4.058594 0" stroke-linecap="round" />
</g>
</g>
</g>
</svg>